<?xml version="1.0" encoding="UTF-8" standalone="no"?>
<!-- Generator: Adobe Illustrator 19.0.0, SVG Export Plug-In . SVG Version: 6.00 Build 0)  -->

<svg
   xmlns:dc="http://purl.org/dc/elements/1.1/"
   xmlns:cc="http://creativecommons.org/ns#"
   xmlns:rdf="http://www.w3.org/1999/02/22-rdf-syntax-ns#"
   xmlns:svg="http://www.w3.org/2000/svg"
   xmlns="http://www.w3.org/2000/svg"
   xmlns:sodipodi="http://sodipodi.sourceforge.net/DTD/sodipodi-0.dtd"
   xmlns:inkscape="http://www.inkscape.org/namespaces/inkscape"
   version="1.1"
   x="0px"
   y="0px"
   width="816"
   height="196"
   viewBox="0 0 816 196"
   enable-background="new 0 0 1400 1400"
   xml:space="preserve"
   id="svg2"
   inkscape:version="0.91 r13725"
   sodipodi:docname="social.svg"><metadata
     id="metadata136"><rdf:RDF><cc:Work
         rdf:about=""><dc:format>image/svg+xml</dc:format><dc:type
           rdf:resource="http://purl.org/dc/dcmitype/StillImage" /><dc:title></dc:title></cc:Work></rdf:RDF></metadata><defs
     id="defs134" /><sodipodi:namedview
     pagecolor="#ff2525"
     bordercolor="#666666"
     borderopacity="1"
     objecttolerance="10"
     gridtolerance="10"
     guidetolerance="10"
     inkscape:pageopacity="0"
     inkscape:pageshadow="2"
     inkscape:window-width="1920"
     inkscape:window-height="1017"
     id="namedview132"
     showgrid="false"
     inkscape:zoom="0.476792"
     inkscape:cx="-471.61016"
     inkscape:cy="700"
     inkscape:window-x="1920"
     inkscape:window-y="30"
     inkscape:window-maximized="1"
     inkscape:current-layer="svg2" /><g
     id="Layer_2"
     transform="matrix(1.1427152,0,0,1.1827103,-254.5415,-959.93404)"><g
       id="XMLID_21_"><g
         id="XMLID_19_"><g
           id="XMLID_109_"
           transform="translate(35.59322,261.01695)"><g
             id="XMLID_22_"><path
               id="XMLID_120_"
               d="m 251.2,696.5 c -21.7,0 -42.1,-8.6 -57.3,-24.1 -2.1,-2.1 -2.7,-5.2 -1.6,-7.9 1.1,-2.7 3.6,-4.6 6.6,-4.8 8.7,-0.5 17.2,-2.8 24.9,-6.6 -7.3,-12.3 -11.1,-26.2 -11.1,-40.7 0,-14.4 3.9,-28.5 11.2,-40.8 1.4,-2.4 4.2,-3.8 7,-3.7 2.8,0.2 5.3,2 6.4,4.6 4.8,11.7 12.9,21.6 23.3,28.7 5.6,-13.8 18.9,-22.8 34,-22.8 19.3,0 35.5,15.1 36.7,34.4 0,0 0,0.1 0,0.1 0,0.7 0.1,1.4 0.1,2.2 0,0.1 0,0.2 0,0.4 0,0.2 0,0.3 0,0.4 0,0.1 0,0.3 0,0.4 0,32.7 -19.6,61.8 -49.8,74.2 -9.7,4 -19.9,6 -30.4,6 z m -34.4,-24.8 c 10.2,6.4 22,9.8 34.4,9.8 8.5,0 16.8,-1.6 24.6,-4.8 24.6,-10.1 40.5,-33.7 40.5,-60.3 0,-0.1 0,-0.2 0,-0.4 l 0,-0.2 c 0,0 0,-0.1 0,-0.1 0,0 0,-0.1 0,-0.1 l 0,0 c 0,0 0,0 0,0 0,-0.1 0,-0.3 0,-0.4 0,-0.5 0,-1 0,-1.5 -0.8,-11.4 -10.3,-20.3 -21.7,-20.3 -9.4,0 -17.8,6.1 -20.7,15 -0.3,1.6 -0.6,3.1 -1,4.7 l 0,0.2 c -0.2,2.2 -1.3,4.2 -3.1,5.4 -1.8,1.3 -4,1.7 -6.2,1.1 -0.6,-0.2 -1.2,-0.4 -1.8,-0.7 -12.5,-6.2 -23.1,-15.6 -30.8,-27.1 -2.1,6.5 -3.2,13.2 -3.2,20.1 0,14.1 4.4,27.5 12.8,38.7 1.2,1.7 1.7,3.8 1.4,5.8 -0.4,2 -1.6,3.8 -3.3,5 -6.9,4.6 -14.2,7.9 -21.9,10.1 z m 99.5,-55.3 7.5,0 -7.5,0 c 0,-0.1 0,-0.1 0,0 z"
               inkscape:connector-curvature="0"
               style="fill:#ffffff" /></g><g
             id="XMLID_15_"><path
               id="XMLID_119_"
               d="m 265.4,619.5 c -0.4,0 -0.9,0 -1.3,-0.1 -3.9,-0.7 -6.6,-4.3 -6.1,-8.2 0.3,-2.2 0.7,-4.4 1.4,-6.6 1.2,-3.8 5,-6 8.9,-5.1 3.8,0.9 6.3,4.6 5.7,8.5 -0.3,1.9 -0.7,3.9 -1.2,5.8 -1,3.4 -4,5.7 -7.4,5.7 z"
               inkscape:connector-curvature="0"
               style="fill:#ffffff" /></g><g
             id="XMLID_16_"><path
               id="XMLID_115_"
               d="m 323.8,623.2 c -0.1,0 -0.1,0 -0.2,0 -4.1,-0.1 -7.3,-3.4 -7.3,-7.5 l 0,0 c 0,-0.1 0,-0.3 0,-0.4 0,-0.5 0,-1 0,-1.6 -0.2,-4.1 2.9,-7.6 7.1,-7.9 4.1,-0.2 7.7,2.9 7.9,7 0.1,0.8 0.1,1.6 0.1,2.4 l 0,0 c 0,0.3 0,0.6 0,0.9 -0.3,4 -3.6,7.1 -7.6,7.1 z"
               inkscape:connector-curvature="0"
               style="fill:#ffffff" /></g><g
             id="XMLID_6_"><path
               id="XMLID_114_"
               d="m 322.6,614.3 c -3,0 -5.9,-1.9 -7,-4.9 -1.4,-3.9 0.5,-8.2 4.4,-9.6 l 12.9,-4.8 c 3.9,-1.4 8.2,0.5 9.6,4.4 1.4,3.9 -0.5,8.2 -4.4,9.6 l -12.9,4.8 c -0.9,0.3 -1.8,0.5 -2.6,0.5 z"
               inkscape:connector-curvature="0"
               style="fill:#ffffff" /></g><circle
             id="XMLID_5_"
             cx="295.70001"
             cy="612"
             r="7"
             style="fill:#ffffff" /></g><g
           id="XMLID_18_"><circle
             id="XMLID_38_"
             cx="601.5"
             cy="852.5"
             r="8.1999998"
             style="fill:#ffffff" /><g
             id="XMLID_32_"><path
               id="XMLID_93_"
               d="m 601.7,972.7 -84.7,0 c -19.7,0 -35.7,-16 -35.7,-35.7 l 0,-84.7 c 0,-19.7 16,-35.7 35.7,-35.7 l 84.7,0 c 19.7,0 35.7,16 35.7,35.7 l 0,84.7 c 0,19.7 -16,35.7 -35.7,35.7 z M 517.1,831.6 c -11.4,0 -20.7,9.3 -20.7,20.7 l 0,84.7 c 0,11.4 9.3,20.7 20.7,20.7 l 84.7,0 c 11.4,0 20.7,-9.3 20.7,-20.7 l 0,-84.7 c 0,-11.4 -9.3,-20.7 -20.7,-20.7 l -84.7,0 z"
               inkscape:connector-curvature="0"
               style="fill:#ffffff" /></g><g
             id="XMLID_33_"><path
               id="XMLID_90_"
               d="m 559.4,936.1 c -22.9,0 -41.5,-18.6 -41.5,-41.5 0,-22.9 18.6,-41.5 41.5,-41.5 22.9,0 41.5,18.6 41.5,41.5 0,22.9 -18.6,41.5 -41.5,41.5 z m 0,-67.9 c -14.6,0 -26.5,11.9 -26.5,26.5 0,14.6 11.9,26.5 26.5,26.5 14.6,0 26.5,-11.9 26.5,-26.5 0,-14.6 -11.9,-26.5 -26.5,-26.5 z"
               inkscape:connector-curvature="0"
               style="fill:#ffffff" /></g></g><g
           id="XMLID_14_"><g
             id="XMLID_36_"><path
               id="XMLID_67_"
               d="m 847.8,938.8 c -4.1,0 -7.5,-3.4 -7.5,-7.5 l 0,-50.5 c 0,-12.5 10.1,-22.6 22.6,-22.6 l 4.2,0 c 4.1,0 7.5,3.4 7.5,7.5 0,4.1 -3.4,7.5 -7.5,7.5 l -4.2,0 c -4.2,0 -7.6,3.4 -7.6,7.6 l 0,50.5 c 0,4.2 -3.3,7.5 -7.5,7.5 z"
               inkscape:connector-curvature="0"
               style="fill:#ffffff" /></g><g
             id="XMLID_44_"><path
               id="XMLID_66_"
               d="m 843.4,899 c -8.2,0 -9.2,-0.4 -10.1,-0.7 -3.9,-1.3 -6.1,-5.6 -4.7,-9.5 1.2,-3.6 5,-5.7 8.6,-5 2.4,0.2 13.5,0.1 22.7,-0.2 4.1,-0.1 7.6,3.2 7.7,7.3 0.1,4.1 -3.2,7.6 -7.3,7.7 -7.7,0.3 -13.1,0.4 -16.9,0.4 z"
               inkscape:connector-curvature="0"
               style="fill:#ffffff" /></g><g
             id="XMLID_45_"><path
               id="XMLID_63_"
               d="m 851.4,973.8 c -43.7,0 -79.2,-35.5 -79.2,-79.2 0,-43.7 35.5,-79.2 79.2,-79.2 43.7,0 79.2,35.5 79.2,79.2 0,43.7 -35.5,79.2 -79.2,79.2 z m 0,-143.4 c -35.4,0 -64.2,28.8 -64.2,64.2 0,35.4 28.8,64.2 64.2,64.2 35.4,0 64.2,-28.8 64.2,-64.2 0,-35.4 -28.8,-64.2 -64.2,-64.2 z"
               inkscape:connector-curvature="0"
               style="fill:#ffffff" /></g></g></g></g></g></svg>