<?xml version="1.0" encoding="UTF-8" standalone="no"?>
<svg
   xmlns:osb="http://www.openswatchbook.org/uri/2009/osb"
   xmlns:dc="http://purl.org/dc/elements/1.1/"
   xmlns:cc="http://creativecommons.org/ns#"
   xmlns:rdf="http://www.w3.org/1999/02/22-rdf-syntax-ns#"
   xmlns:svg="http://www.w3.org/2000/svg"
   xmlns="http://www.w3.org/2000/svg"
   xmlns:xlink="http://www.w3.org/1999/xlink"
   xmlns:sodipodi="http://sodipodi.sourceforge.net/DTD/sodipodi-0.dtd"
   xmlns:inkscape="http://www.inkscape.org/namespaces/inkscape"
   height="235.79378"
   width="534.85547"
   id="svg2"
   version="1.1"
   inkscape:version="0.91 r13725"
   sodipodi:docname="UMTS-White.svg">
  <metadata
     id="metadata29">
    <rdf:RDF>
      <cc:Work
         rdf:about="">
        <dc:format>image/svg+xml</dc:format>
        <dc:type
           rdf:resource="http://purl.org/dc/dcmitype/StillImage" />
        <dc:title></dc:title>
      </cc:Work>
    </rdf:RDF>
  </metadata>
  <defs
     id="defs27">
    <linearGradient
       id="linearGradient5621"
       osb:paint="solid">
      <stop
         style="stop-color:#ffffff;stop-opacity:1;"
         offset="0"
         id="stop5623" />
    </linearGradient>
    <linearGradient
       id="linearGradient5615"
       osb:paint="solid">
      <stop
         style="stop-color:#ffffff;stop-opacity:1;"
         offset="0"
         id="stop5617" />
    </linearGradient>
    <linearGradient
       id="linearGradient5607"
       osb:paint="solid">
      <stop
         style="stop-color:#ffffff;stop-opacity:1;"
         offset="0"
         id="stop5609" />
    </linearGradient>
    <linearGradient
       inkscape:collect="always"
       xlink:href="#linearGradient5607"
       id="linearGradient5611"
       x1="26.41421"
       y1="117.89581"
       x2="508.44342"
       y2="117.89581"
       gradientUnits="userSpaceOnUse" />
    <linearGradient
       inkscape:collect="always"
       xlink:href="#linearGradient5615"
       id="linearGradient5619"
       x1="79.352478"
       y1="65.554153"
       x2="534.85547"
       y2="65.554153"
       gradientUnits="userSpaceOnUse" />
    <linearGradient
       inkscape:collect="always"
       xlink:href="#linearGradient5621"
       id="linearGradient5625"
       x1="0"
       y1="170.24286"
       x2="455.51593"
       y2="170.24286"
       gradientUnits="userSpaceOnUse" />
  </defs>
  <sodipodi:namedview
     pagecolor="#ffffff"
     bordercolor="#666666"
     borderopacity="1"
     objecttolerance="10"
     gridtolerance="10"
     guidetolerance="10"
     inkscape:pageopacity="0"
     inkscape:pageshadow="2"
     inkscape:window-width="1616"
     inkscape:window-height="923"
     id="namedview25"
     showgrid="false"
     fit-margin-top="0"
     fit-margin-left="0"
     fit-margin-right="0"
     fit-margin-bottom="0"
     inkscape:zoom="0.38"
     inkscape:cx="-28.309602"
     inkscape:cy="183.98073"
     inkscape:window-x="0"
     inkscape:window-y="8"
     inkscape:window-maximized="0"
     inkscape:current-layer="svg2"
     inkscape:snap-page="false"
     inkscape:snap-text-baseline="false" />
  <linearGradient
     y2="312.50299"
     x2="382.47501"
     y1="206.278"
     x1="619.31299"
     gradientUnits="userSpaceOnUse"
     id="a"
     gradientTransform="matrix(2.1538007,0,0,2.1538007,-809.47367,-438.53105)"
     xlink:href="#c">
    <stop
       offset="0"
       stop-color="#a3195b"
       id="stop5" />
    <stop
       offset="1"
       stop-color="#29235c"
       id="stop7" />
  </linearGradient>
  <path
     d="m 311.17466,174.85199 c 31.40242,31.40242 82.50349,31.40242 113.9059,0 l 30.43536,-30.43751 -13.2071,-13.20495 -30.43536,30.43536 c -24.12257,24.12257 -63.37128,24.12257 -87.49169,0 l -30.5409,-30.53659 -56.95079,56.94865 c -18.74238,18.74022 -43.65754,29.06338 -70.16006,29.06338 -26.50252,0 -51.41984,-10.31886 -70.1579,-29.06338 L 13.20711,104.69194 0,117.89904 83.36501,201.26621 c 22.26815,22.26599 51.87214,34.52757 83.36501,34.52757 31.49072,0 61.09902,-12.26158 83.36501,-34.52973 l 43.748,-43.74584 17.33163,17.33378 z"
     id="path9"
     style="fill:url(#linearGradient5625);fill-opacity:1.0"
     inkscape:connector-curvature="0" />
  <linearGradient
     y2="310.09299"
     x2="381.392"
     y1="203.868"
     x1="618.23102"
     gradientUnits="userSpaceOnUse"
     id="b"
     gradientTransform="matrix(2.1538007,0,0,2.1538007,-809.47367,-438.53105)"
     osb:paint="gradient">
    <stop
       offset="0"
       stop-color="#a3195b"
       id="stop12"
       style="stop-color:#f87575;stop-opacity:0.00392157;" />
    <stop
       offset="1"
       stop-color="#29235c"
       id="stop14" />
  </linearGradient>
  <path
     d="m 166.73002,37.35767 c -21.51431,0 -41.74066,8.37613 -56.9508,23.59058 l -30.42674,30.42458 13.20711,13.20926 30.42674,-30.42674 c 11.68652,-11.68652 27.21973,-18.12208 43.74584,-18.12208 16.52612,0 32.06148,6.43556 43.74585,18.12208 l 30.54089,30.53659 56.9508,-56.9508 c 18.74022,-18.74022 43.65754,-29.06123 70.1579,-29.06123 26.50037,0 51.41984,10.32101 70.15791,29.06123 l 83.36285,83.36501 13.20711,-13.20711 -83.3607,-83.365 C 429.22232,12.26589 399.61833,0.00215 368.12761,0.00215 c -31.49072,0 -61.09686,12.26159 -83.36501,34.53189 L 241.01676,78.28203 223.68297,60.94825 C 208.46852,45.73595 188.24218,37.35767 166.73002,37.35767 Z"
     id="path16"
     style="fill:url(#linearGradient5619);fill-opacity:1.0"
     inkscape:connector-curvature="0" />
  <linearGradient
     y2="311.302"
     x2="381.93399"
     y1="205.077"
     x1="618.77301"
     gradientUnits="userSpaceOnUse"
     id="c"
     gradientTransform="matrix(2.1538007,0,0,2.1538007,-809.47367,-438.53105)">
    <stop
       offset="0"
       stop-color="#a3195b"
       id="stop19" />
    <stop
       offset="1"
       stop-color="#29235c"
       id="stop21" />
  </linearGradient>
  <path
     d="m 425.07841,60.94825 c -15.21445,-15.2123 -35.44079,-23.59058 -56.95295,-23.59058 -21.51432,0 -41.74066,8.37828 -56.9508,23.59058 L 210.47587,161.64489 c -24.12042,24.12472 -63.36913,24.12257 -87.49169,0 l -70.16006,-70.1579 43.748,-43.748 c 18.74022,-18.74022 43.65538,-29.06124 70.1579,-29.06124 26.50252,0 51.41984,10.32102 70.16006,29.06124 l 3.92853,3.92853 13.20711,-13.20495 -3.93069,-3.93069 C 227.82904,12.26374 198.22289,0 166.73002,0 135.23715,0 105.63316,12.26158 83.36501,34.53188 l -56.9508,56.95295 83.36501,83.36501 c 15.70121,15.70336 36.32601,23.55181 56.9508,23.55181 20.6248,0 41.25174,-7.84845 56.95295,-23.55181 L 324.38177,74.1532 c 11.68437,-11.68652 27.21973,-18.12208 43.74584,-18.12208 16.52612,0 32.06148,6.43556 43.748,18.12208 l 70.15575,70.1579 -43.74369,43.74585 c -18.74022,18.74022 -43.65969,29.06338 -70.16006,29.06338 -26.50036,0 -51.41768,-10.32316 -70.1579,-29.06123 l -3.98884,-3.98884 -13.20495,13.2028 3.98884,3.99099 c 22.26599,22.26599 51.87429,34.52758 83.36285,34.52758 31.49072,0 61.09471,-12.26159 83.36717,-34.52973 l 56.94864,-56.9508 -83.36501,-83.36285 z"
     id="path23"
     style="fill:url(#linearGradient5611);fill-opacity:1"
     inkscape:connector-curvature="0" />
</svg>
