<svg xmlns="http://www.w3.org/2000/svg" height="590" width="1000"><linearGradient y2="312.503" x2="382.475" y1="206.278" x1="619.313" gradientUnits="userSpaceOnUse" id="a"><stop offset="0" stop-color="#a3195b"/><stop offset="1" stop-color="#29235c"/></linearGradient><path d="M520.312 284.791c14.58 14.58 38.306 14.58 52.886 0l14.131-14.132-6.132-6.131-14.131 14.131c-11.2 11.2-29.423 11.2-40.622 0l-14.18-14.178-26.442 26.441c-8.702 8.701-20.27 13.494-32.575 13.494-12.305 0-23.874-4.791-32.574-13.494l-38.706-38.706-6.132 6.132 38.706 38.707c10.339 10.338 24.084 16.031 38.706 16.031 14.621 0 28.368-5.693 38.706-16.032l20.312-20.311 8.047 8.048z" fill="url(#a)"/><linearGradient y2="310.093" x2="381.392" y1="203.868" x1="618.231" gradientUnits="userSpaceOnUse" id="b"><stop offset="0" stop-color="#a3195b"/><stop offset="1" stop-color="#29235c"/></linearGradient><path d="M453.247 220.953c-9.989 0-19.38 3.889-26.442 10.953l-14.127 14.126 6.132 6.133 14.127-14.127c5.426-5.426 12.638-8.414 20.311-8.414s14.886 2.988 20.311 8.414l14.18 14.178 26.442-26.442c8.701-8.701 20.27-13.493 32.574-13.493s23.874 4.792 32.574 13.493l38.705 38.706 6.132-6.132-38.704-38.706c-10.341-10.339-24.086-16.033-38.707-16.033s-28.367 5.693-38.706 16.033l-20.311 20.312-8.048-8.048c-7.064-7.063-16.455-10.953-26.443-10.953z" fill="url(#b)"/><linearGradient y2="311.302" x2="381.934" y1="205.077" x1="618.773" gradientUnits="userSpaceOnUse" id="c"><stop offset="0" stop-color="#a3195b"/><stop offset="1" stop-color="#29235c"/></linearGradient><path d="M573.197 231.906c-7.064-7.063-16.455-10.953-26.443-10.953-9.989 0-19.38 3.89-26.442 10.953l-46.754 46.753c-11.199 11.201-29.422 11.2-40.622 0l-32.575-32.574 20.312-20.312c8.701-8.701 20.269-13.493 32.574-13.493s23.874 4.792 32.575 13.493l1.824 1.824 6.132-6.131-1.825-1.825c-10.338-10.339-24.084-16.033-38.706-16.033-14.622 0-28.367 5.693-38.706 16.033l-26.442 26.443 38.706 38.706c7.29 7.291 16.866 10.935 26.442 10.935s19.153-3.644 26.443-10.935l46.754-46.753c5.425-5.426 12.638-8.414 20.311-8.414s14.886 2.988 20.312 8.414l32.573 32.574-20.31 20.311c-8.701 8.701-20.271 13.494-32.575 13.494-12.304 0-23.873-4.793-32.574-13.493l-1.852-1.852-6.131 6.13 1.852 1.853c10.338 10.338 24.085 16.031 38.705 16.031 14.621 0 28.366-5.693 38.707-16.032l26.441-26.442-38.706-38.705z" fill="url(#c)"/></svg>